<svg preserveAspectRatio="none" width="100%" height="100%" overflow="visible" style="display: block;" viewBox="0 0 63.36 76.824" fill="none" xmlns="http://www.w3.org/2000/svg">
<g id="1 - a" opacity="0.8" filter="url(#filter0_n_0_4)">
<path d="M43.992 47.9235C43.992 46.137 42.4958 44.7089 40.7141 44.8407C37.2968 45.0933 34.3574 45.4584 31.896 45.936C28.68 46.512 26.112 47.28 24.192 48.24C22.32 49.2 20.976 50.304 20.16 51.552C19.392 52.752 19.008 54.072 19.008 55.512C19.008 58.392 19.8 60.432 21.384 61.632C23.016 62.832 25.272 63.432 28.152 63.432C31.464 63.432 34.32 62.856 36.72 61.704C38.8666 60.6517 40.9947 59.1012 43.1044 57.0525C43.6838 56.4898 43.992 55.7089 43.992 54.9013V47.9235ZM4.73918 13.9112C4.03044 12.6383 4.28838 11.0354 5.41971 10.1175C9.27764 6.98738 13.4711 4.59888 18 2.952C23.28 0.983997 28.992 0 35.136 0C39.552 0 43.488 0.719996 46.944 2.15999C50.448 3.59999 53.4 5.61599 55.8 8.20799C58.248 10.752 60.12 13.8 61.416 17.352C62.712 20.904 63.36 24.792 63.36 29.016V72.547C63.36 74.2729 61.9609 75.672 60.235 75.672H54.288C52.416 75.672 50.976 75.408 49.968 74.88C49.008 74.352 48.216 73.248 47.592 71.568L47.4911 71.2652C46.7857 69.1491 44.1524 68.4326 42.3788 69.7853C41.7589 70.2581 41.1446 70.7083 40.536 71.136C38.808 72.384 37.008 73.44 35.136 74.304C33.264 75.12 31.248 75.744 29.088 76.176C26.976 76.608 24.6 76.824 21.96 76.824C18.696 76.824 15.72 76.392 13.032 75.528C10.344 74.664 8.016 73.392 6.048 71.712C4.128 69.984 2.64 67.848 1.584 65.304C0.527999 62.76 0 59.832 0 56.52C0 53.784 0.695998 51.048 2.088 48.312C3.48 45.576 5.856 43.104 9.216 40.896C12.624 38.64 17.136 36.792 22.752 35.352C27.7233 34.046 33.7853 33.2392 40.9382 32.9315C42.635 32.8585 43.992 31.4752 43.992 29.7768V29.016C43.992 24.36 43.008 20.952 41.04 18.792C39.072 16.584 36.24 15.48 32.544 15.48C29.808 15.48 27.528 15.816 25.704 16.488C23.88 17.112 22.272 17.808 20.88 18.576C19.536 19.296 18.264 19.992 17.064 20.664C15.864 21.288 14.472 21.6 12.888 21.6C11.496 21.6 10.32 21.264 9.36 20.592C8.448 19.872 7.68 19.032 7.056 18.072L4.73918 13.9112Z" fill="var(--fill-0, #1E1F24)"/>
</g>
<defs>
<filter id="filter0_n_0_4" x="0" y="0" width="63.36" height="76.824" filterUnits="userSpaceOnUse" color-interpolation-filters="sRGB">
<feFlood flood-opacity="0" result="BackgroundImageFix"/>
<feBlend mode="normal" in="SourceGraphic" in2="BackgroundImageFix" result="shape"/>
<feTurbulence type="fractalNoise" baseFrequency="1.2799999713897705 1.2799999713897705" stitchTiles="stitch" numOctaves="3" result="noise" seed="302" />
<feComponentTransfer in="noise" result="coloredNoise1">
<feFuncR type="linear" slope="2" intercept="-0.5" />
<feFuncG type="linear" slope="2" intercept="-0.5" />
<feFuncB type="linear" slope="2" intercept="-0.5" />
<feFuncA type="discrete" tableValues="0 0 0 0 0 0 0 0 0 0 0 0 1 1 1 1 1 1 1 1 1 1 1 1 1 1 1 1 1 1 1 1 1 1 1 1 1 1 0 0 0 0 0 0 0 0 0 0 0 0 0 0 0 0 0 0 0 0 0 0 0 0 0 0 0 0 0 0 0 0 0 0 0 0 0 0 0 0 0 0 0 0 0 0 0 0 0 0 0 0 0 0 0 0 0 0 0 0 0 0 "/>
</feComponentTransfer>
<feComposite operator="in" in2="shape" in="coloredNoise1" result="noise1Clipped" />
<feComponentTransfer in="noise1Clipped" result="color1">
<feFuncA type="table" tableValues="0 0.1" />
</feComponentTransfer>
<feMerge result="effect1_noise_0_4">
<feMergeNode in="shape" />
<feMergeNode in="color1" />
</feMerge>
</filter>
</defs>
</svg>
