<svg preserveAspectRatio="none" width="100%" height="100%" overflow="visible" style="display: block;" viewBox="0 0 149.738 179.612" fill="none" xmlns="http://www.w3.org/2000/svg">
<g id="4 - U" filter="url(#filter0_n_0_6)">
<path d="M74.93 148.268C80.8885 148.268 86.2348 147.289 90.969 145.33C95.7031 143.289 99.7026 140.433 102.968 136.76C106.232 133.087 108.722 128.638 110.436 123.414C112.15 118.19 113.007 112.313 113.007 105.784V9.79479C113.007 4.38528 117.392 0 122.802 0H139.943C145.352 0 149.738 4.38527 149.738 9.79477V105.784C149.738 116.558 147.983 126.475 144.473 135.535C141.045 144.514 136.107 152.268 129.658 158.798C123.21 165.328 115.374 170.429 106.151 174.102C96.9275 177.775 86.5205 179.612 74.93 179.612C63.3395 179.612 52.8918 177.775 43.5867 174.102C34.3633 170.429 26.5275 165.328 20.0793 158.798C13.6311 152.268 8.65205 144.514 5.14226 135.535C1.71409 126.475 0 116.558 0 105.784V9.79479C0 4.38528 4.38527 0 9.79477 0H26.9356C32.3451 0 36.7304 4.38527 36.7304 9.79477V105.784C36.7304 112.313 37.5874 118.19 39.3015 123.414C41.0156 128.638 43.5051 133.087 46.77 136.76C50.035 140.433 54.0345 143.289 58.7686 145.33C63.5028 147.289 68.8899 148.268 74.93 148.268Z" fill="var(--fill-0, #58D4DE)"/>
</g>
<defs>
<filter id="filter0_n_0_6" x="0" y="0" width="149.738" height="179.612" filterUnits="userSpaceOnUse" color-interpolation-filters="sRGB">
<feFlood flood-opacity="0" result="BackgroundImageFix"/>
<feBlend mode="normal" in="SourceGraphic" in2="BackgroundImageFix" result="shape"/>
<feTurbulence type="fractalNoise" baseFrequency="1.2799999713897705 1.2799999713897705" stitchTiles="stitch" numOctaves="3" result="noise" seed="302" />
<feComponentTransfer in="noise" result="coloredNoise1">
<feFuncR type="linear" slope="2" intercept="-0.5" />
<feFuncG type="linear" slope="2" intercept="-0.5" />
<feFuncB type="linear" slope="2" intercept="-0.5" />
<feFuncA type="discrete" tableValues="0 0 0 0 0 0 0 0 0 0 0 0 1 1 1 1 1 1 1 1 1 1 1 1 1 1 1 1 1 1 1 1 1 1 1 1 1 1 0 0 0 0 0 0 0 0 0 0 0 0 0 0 0 0 0 0 0 0 0 0 0 0 0 0 0 0 0 0 0 0 0 0 0 0 0 0 0 0 0 0 0 0 0 0 0 0 0 0 0 0 0 0 0 0 0 0 0 0 0 0 "/>
</feComponentTransfer>
<feComposite operator="in" in2="shape" in="coloredNoise1" result="noise1Clipped" />
<feComponentTransfer in="noise1Clipped" result="color1">
<feFuncA type="table" tableValues="0 0.1" />
</feComponentTransfer>
<feMerge result="effect1_noise_0_6">
<feMergeNode in="shape" />
<feMergeNode in="color1" />
</feMerge>
</filter>
</defs>
</svg>
