<svg preserveAspectRatio="none" width="100%" height="100%" overflow="visible" style="display: block;" viewBox="0 0 119.609 181.571" fill="none" xmlns="http://www.w3.org/2000/svg">
<g id="5 - S" filter="url(#filter0_n_0_5)">
<path d="M107.61 35.9958C106.467 37.8731 105.284 39.2607 104.059 40.1586C102.917 40.9748 101.407 41.3829 99.5294 41.3829C97.7337 41.3829 95.7747 40.7708 93.6525 39.5464C91.6119 38.2404 89.2041 36.8528 86.4289 35.3836C83.6537 33.9144 80.4704 32.5676 76.879 31.3433C73.2876 30.0373 69.084 29.3843 64.2682 29.3843C55.7794 29.3843 49.4128 31.3025 45.1684 35.1388C40.924 38.8934 38.8018 43.8316 38.8018 49.9534C38.8018 53.8713 39.9445 57.1362 42.23 59.7481C44.597 62.2784 47.6579 64.4823 51.4126 66.3596C55.2489 68.2369 59.5749 69.9102 64.3906 71.3794C69.2064 72.8486 74.1446 74.4811 79.2052 76.2768C84.2659 77.9909 89.2041 80.0315 94.0198 82.3985C98.8356 84.7656 103.121 87.7449 106.875 91.3363C110.712 94.9277 113.773 99.3353 116.058 104.559C118.425 109.701 119.609 115.986 119.609 123.414C119.609 131.495 118.18 139.086 115.323 146.187C112.548 153.207 108.508 159.369 103.202 164.675C97.8969 169.899 91.3263 174.021 83.4905 177.041C75.7363 180.061 66.921 181.571 57.0446 181.571C51.4126 181.571 45.7806 180.999 40.1486 179.857C34.5982 178.714 29.2111 177.122 23.9872 175.082C18.8449 173.041 13.9884 170.592 9.41747 167.736C7.18096 166.338 5.08124 164.862 3.11831 163.308C-0.412916 160.512 -0.914397 155.496 1.45818 151.668L8.19312 140.8C9.09098 139.494 10.2745 138.433 11.7437 137.617C13.2129 136.719 14.7638 136.27 16.3962 136.27C18.6001 136.27 20.9263 137.086 23.375 138.719C25.8237 140.351 28.6397 142.147 31.823 144.106C35.0063 146.065 38.6794 147.86 42.8421 149.493C47.0865 151.125 52.1472 151.941 58.024 151.941C66.5945 151.941 73.2059 149.982 77.8585 146.065C82.5926 142.147 84.9597 136.311 84.9597 128.556C84.9597 124.067 83.7761 120.435 81.4091 117.66C79.1236 114.885 76.1036 112.558 72.3489 110.681C68.5942 108.804 64.309 107.212 59.4933 105.906C54.6775 104.518 49.7393 103.008 44.6787 101.376C39.618 99.7435 34.6798 97.7845 29.8641 95.4991C25.0483 93.2136 20.7631 90.1936 17.0084 86.4389C13.2538 82.6842 10.1929 78.0317 7.82582 72.4813C5.54037 66.931 4.39765 60.0338 4.39765 51.7899C4.39765 45.1784 5.70362 38.771 8.31556 32.5676C10.9275 26.3643 14.7638 20.8547 19.8244 16.039C24.8851 11.2232 31.0884 7.34608 38.4345 4.40765C45.8622 1.46922 54.351 0 63.9009 0C74.5935 0 84.4699 1.67327 93.5301 5.01982C100.049 7.34807 105.842 10.3404 110.908 13.9969C114.483 16.577 115.251 21.4374 113.202 25.3411L107.61 35.9958Z" fill="var(--fill-0, #58D4DE)"/>
</g>
<defs>
<filter id="filter0_n_0_5" x="0" y="0" width="119.609" height="181.571" filterUnits="userSpaceOnUse" color-interpolation-filters="sRGB">
<feFlood flood-opacity="0" result="BackgroundImageFix"/>
<feBlend mode="normal" in="SourceGraphic" in2="BackgroundImageFix" result="shape"/>
<feTurbulence type="fractalNoise" baseFrequency="1.2799999713897705 1.2799999713897705" stitchTiles="stitch" numOctaves="3" result="noise" seed="302" />
<feComponentTransfer in="noise" result="coloredNoise1">
<feFuncR type="linear" slope="2" intercept="-0.5" />
<feFuncG type="linear" slope="2" intercept="-0.5" />
<feFuncB type="linear" slope="2" intercept="-0.5" />
<feFuncA type="discrete" tableValues="0 0 0 0 0 0 0 0 0 0 0 0 1 1 1 1 1 1 1 1 1 1 1 1 1 1 1 1 1 1 1 1 1 1 1 1 1 1 0 0 0 0 0 0 0 0 0 0 0 0 0 0 0 0 0 0 0 0 0 0 0 0 0 0 0 0 0 0 0 0 0 0 0 0 0 0 0 0 0 0 0 0 0 0 0 0 0 0 0 0 0 0 0 0 0 0 0 0 0 0 "/>
</feComponentTransfer>
<feComposite operator="in" in2="shape" in="coloredNoise1" result="noise1Clipped" />
<feComponentTransfer in="noise1Clipped" result="color1">
<feFuncA type="table" tableValues="0 0.1" />
</feComponentTransfer>
<feMerge result="effect1_noise_0_5">
<feMergeNode in="shape" />
<feMergeNode in="color1" />
</feMerge>
</filter>
</defs>
</svg>
