<svg preserveAspectRatio="none" width="100%" height="100%" overflow="visible" style="display: block;" viewBox="0 0 31.6596 52.55" fill="none" xmlns="http://www.w3.org/2000/svg">
<g id="12 - r" opacity="0.8" filter="url(#filter0_n_0_11)">
<path d="M12.2 4.35C12.4428 6.01692 14.7918 6.49423 15.8808 5.20905C16.7369 4.19869 17.6433 3.31234 18.6 2.55C20.7333 0.85 23.2333 0 26.1 0C27.7047 0 29.1045 0.260138 30.2993 0.780415C31.2903 1.21196 31.7422 2.30491 31.6472 3.38165L30.9216 11.6052C30.9072 11.7681 30.8824 11.9305 30.834 12.0867C30.6663 12.6284 30.4216 13.0161 30.1 13.25C29.7667 13.4833 29.3 13.6 28.7 13.6C28.1667 13.6 27.4 13.5333 26.4 13.4C25.4 13.2333 24.4667 13.15 23.6 13.15C22.3333 13.15 21.2 13.3333 20.2 13.7C19.2333 14.0667 18.3667 14.5833 17.6 15.25C16.8333 15.9167 16.1333 16.7333 15.5 17.7C14.9976 18.5095 14.5185 19.4125 14.0628 20.409C13.8854 20.797 13.8 21.2201 13.8 21.6467V49.425C13.8 51.1509 12.4009 52.55 10.675 52.55H3.125C1.39911 52.55 0 51.1509 0 49.425V4.125C0 2.39911 1.39911 0.999999 3.125 0.999999H8.15C9.55 0.999999 10.5167 1.25 11.05 1.75C11.5833 2.25 11.9667 3.11667 12.2 4.35Z" fill="var(--fill-0, #1E1F24)"/>
</g>
<defs>
<filter id="filter0_n_0_11" x="0" y="0" width="31.6596" height="52.55" filterUnits="userSpaceOnUse" color-interpolation-filters="sRGB">
<feFlood flood-opacity="0" result="BackgroundImageFix"/>
<feBlend mode="normal" in="SourceGraphic" in2="BackgroundImageFix" result="shape"/>
<feTurbulence type="fractalNoise" baseFrequency="1.2799999713897705 1.2799999713897705" stitchTiles="stitch" numOctaves="3" result="noise" seed="302" />
<feComponentTransfer in="noise" result="coloredNoise1">
<feFuncR type="linear" slope="2" intercept="-0.5" />
<feFuncG type="linear" slope="2" intercept="-0.5" />
<feFuncB type="linear" slope="2" intercept="-0.5" />
<feFuncA type="discrete" tableValues="0 0 0 0 0 0 0 0 0 0 0 0 1 1 1 1 1 1 1 1 1 1 1 1 1 1 1 1 1 1 1 1 1 1 1 1 1 1 0 0 0 0 0 0 0 0 0 0 0 0 0 0 0 0 0 0 0 0 0 0 0 0 0 0 0 0 0 0 0 0 0 0 0 0 0 0 0 0 0 0 0 0 0 0 0 0 0 0 0 0 0 0 0 0 0 0 0 0 0 0 "/>
</feComponentTransfer>
<feComposite operator="in" in2="shape" in="coloredNoise1" result="noise1Clipped" />
<feComponentTransfer in="noise1Clipped" result="color1">
<feFuncA type="table" tableValues="0 0.1" />
</feComponentTransfer>
<feMerge result="effect1_noise_0_11">
<feMergeNode in="shape" />
<feMergeNode in="color1" />
</feMerge>
</filter>
</defs>
</svg>
