<svg preserveAspectRatio="none" width="100%" height="100%" overflow="visible" style="display: block;" viewBox="0 0 35.64 43.2135" fill="none" xmlns="http://www.w3.org/2000/svg">
<g id="16 - a" opacity="0.8" filter="url(#filter0_n_0_13)">
<path d="M24.7455 28.3935C24.7455 26.607 23.2486 25.1711 21.4705 25.3452C20.1459 25.4749 18.9696 25.6395 17.9415 25.839C16.1325 26.163 14.688 26.595 13.608 27.135C12.555 27.675 11.799 28.296 11.34 28.998C10.908 29.673 10.692 30.4155 10.692 31.2255C10.692 32.8455 11.1375 33.993 12.0285 34.668C12.9465 35.343 14.2155 35.6805 15.8355 35.6805C17.6985 35.6805 19.305 35.3565 20.655 34.7085C21.7268 34.1831 22.7903 33.4369 23.8457 32.4699C24.4412 31.9244 24.7455 31.1389 24.7455 30.3313V28.3935ZM3.19568 8.77668C2.48694 7.50384 2.73969 5.89246 3.90841 5.02266C5.83796 3.58662 7.91016 2.4659 10.125 1.6605C13.095 0.553502 16.308 0 19.764 0C22.248 0 24.462 0.405 26.406 1.215C28.377 2.025 30.0375 3.159 31.3875 4.617C32.7645 6.048 33.8175 7.7625 34.5465 9.7605C35.2755 11.7585 35.64 13.9455 35.64 16.3215V39.4405C35.64 41.1664 34.2409 42.5655 32.515 42.5655H30.537C29.484 42.5655 28.674 42.417 28.107 42.12C27.567 41.823 27.1215 41.202 26.7705 40.257C26.3467 38.9857 24.7647 38.5556 23.695 39.3627C23.3948 39.5893 23.097 39.8064 22.8015 40.014C21.8295 40.716 20.817 41.31 19.764 41.796C18.711 42.255 17.577 42.606 16.362 42.849C15.174 43.092 13.8375 43.2135 12.3525 43.2135C10.5165 43.2135 8.8425 42.9705 7.3305 42.4845C5.8185 41.9985 4.509 41.283 3.402 40.338C2.322 39.366 1.485 38.1645 0.891 36.7335C0.297 35.3025 0 33.6555 0 31.7925C0 30.2535 0.3915 28.7145 1.1745 27.1755C1.9575 25.6365 3.294 24.246 5.184 23.004C7.101 21.735 9.639 20.6955 12.798 19.8855C15.4947 19.177 18.7622 18.7297 22.6002 18.5435C23.7921 18.4857 24.7455 17.5147 24.7455 16.3215C24.7455 13.7025 24.192 11.7855 23.085 10.5705C21.978 9.3285 20.385 8.7075 18.306 8.7075C16.767 8.7075 15.4845 8.8965 14.4585 9.2745C13.4325 9.6255 12.528 10.017 11.745 10.449C10.989 10.854 10.2735 11.2455 9.5985 11.6235C8.9235 11.9745 8.1405 12.15 7.2495 12.15C6.4665 12.15 5.805 11.961 5.265 11.583C4.752 11.178 4.32 10.7055 3.969 10.1655L3.19568 8.77668Z" fill="var(--fill-0, #1E1F24)"/>
</g>
<defs>
<filter id="filter0_n_0_13" x="0" y="0" width="35.64" height="43.2135" filterUnits="userSpaceOnUse" color-interpolation-filters="sRGB">
<feFlood flood-opacity="0" result="BackgroundImageFix"/>
<feBlend mode="normal" in="SourceGraphic" in2="BackgroundImageFix" result="shape"/>
<feTurbulence type="fractalNoise" baseFrequency="1.2799999713897705 1.2799999713897705" stitchTiles="stitch" numOctaves="3" result="noise" seed="302" />
<feComponentTransfer in="noise" result="coloredNoise1">
<feFuncR type="linear" slope="2" intercept="-0.5" />
<feFuncG type="linear" slope="2" intercept="-0.5" />
<feFuncB type="linear" slope="2" intercept="-0.5" />
<feFuncA type="discrete" tableValues="0 0 0 0 0 0 0 0 0 0 0 0 1 1 1 1 1 1 1 1 1 1 1 1 1 1 1 1 1 1 1 1 1 1 1 1 1 1 0 0 0 0 0 0 0 0 0 0 0 0 0 0 0 0 0 0 0 0 0 0 0 0 0 0 0 0 0 0 0 0 0 0 0 0 0 0 0 0 0 0 0 0 0 0 0 0 0 0 0 0 0 0 0 0 0 0 0 0 0 0 "/>
</feComponentTransfer>
<feComposite operator="in" in2="shape" in="coloredNoise1" result="noise1Clipped" />
<feComponentTransfer in="noise1Clipped" result="color1">
<feFuncA type="table" tableValues="0 0.1" />
</feComponentTransfer>
<feMerge result="effect1_noise_0_13">
<feMergeNode in="shape" />
<feMergeNode in="color1" />
</feMerge>
</filter>
</defs>
</svg>
