<svg preserveAspectRatio="none" width="100%" height="100%" overflow="visible" style="display: block;" viewBox="0 0 30.876 43.0515" fill="none" xmlns="http://www.w3.org/2000/svg">
<g id="17 - s" opacity="0.8" filter="url(#filter0_n_0_14)">
<path d="M28.0005 9.234C27.7035 9.693 27.393 10.0305 27.069 10.2465C26.772 10.4355 26.3535 10.53 25.8135 10.53C25.2735 10.53 24.72 10.395 24.153 10.125C23.586 9.855 22.9515 9.5715 22.2495 9.2745C21.5475 8.9505 20.7375 8.6535 19.8195 8.3835C18.9285 8.1135 17.889 7.9785 16.701 7.9785C14.892 7.9785 13.488 8.3565 12.489 9.1125C11.49 9.8415 10.9905 10.8135 10.9905 12.0285C10.9905 12.8655 11.274 13.5675 11.841 14.1345C12.408 14.7015 13.1505 15.201 14.0685 15.633C15.0135 16.038 16.08 16.4295 17.268 16.8075C18.456 17.1585 19.671 17.55 20.913 17.982C22.182 18.414 23.4105 18.9135 24.5985 19.4805C25.7865 20.0475 26.8395 20.763 27.7575 21.627C28.7025 22.464 29.4585 23.49 30.0255 24.705C30.5925 25.893 30.876 27.3375 30.876 29.0385C30.876 31.0635 30.498 32.94 29.742 34.668C29.013 36.369 27.933 37.8405 26.502 39.0825C25.071 40.3245 23.289 41.2965 21.156 41.9985C19.023 42.7005 16.566 43.0515 13.785 43.0515C12.354 43.0515 10.9365 42.9165 9.5325 42.6465C8.1285 42.4035 6.792 42.0525 5.523 41.5935C4.254 41.1075 3.066 40.554 1.959 39.933C1.68977 39.782 1.42932 39.6277 1.17765 39.4703C-0.105766 38.6675 -0.334771 36.9718 0.464185 35.686L1.6755 33.7365C1.9725 33.2505 2.337 32.8725 2.769 32.6025C3.228 32.3325 3.8085 32.1975 4.5105 32.1975C5.1855 32.1975 5.8065 32.373 6.3735 32.724C6.9405 33.048 7.575 33.4125 8.277 33.8175C8.979 34.1955 9.8025 34.56 10.7475 34.911C11.7195 35.235 12.921 35.397 14.352 35.397C15.432 35.397 16.3635 35.2755 17.1465 35.0325C17.9295 34.7895 18.564 34.4655 19.05 34.0605C19.536 33.6285 19.887 33.156 20.103 32.643C20.346 32.103 20.4675 31.5495 20.4675 30.9825C20.4675 30.0645 20.1705 29.322 19.5765 28.755C19.0095 28.161 18.2535 27.648 17.3085 27.216C16.3905 26.784 15.324 26.3925 14.109 26.0415C12.894 25.6905 11.652 25.299 10.383 24.867C9.141 24.435 7.9125 23.922 6.6975 23.328C5.5095 22.734 4.443 21.9915 3.498 21.1005C2.58 20.1825 1.824 19.062 1.23 17.739C0.663 16.416 0.3795 14.8095 0.3795 12.9195C0.3795 11.1915 0.717 9.558 1.392 8.019C2.067 6.453 3.0795 5.076 4.4295 3.888C5.7795 2.7 7.4535 1.755 9.4515 1.053C11.4765 0.350999 13.812 0 16.458 0C19.428 0 22.128 0.486001 24.558 1.458C26.0856 2.06906 27.4426 2.7975 28.6287 3.64331C29.8257 4.4968 29.985 6.14703 29.19 7.38362L28.0005 9.234Z" fill="var(--fill-0, #1E1F24)"/>
</g>
<defs>
<filter id="filter0_n_0_14" x="0" y="0" width="30.876" height="43.0515" filterUnits="userSpaceOnUse" color-interpolation-filters="sRGB">
<feFlood flood-opacity="0" result="BackgroundImageFix"/>
<feBlend mode="normal" in="SourceGraphic" in2="BackgroundImageFix" result="shape"/>
<feTurbulence type="fractalNoise" baseFrequency="1.2799999713897705 1.2799999713897705" stitchTiles="stitch" numOctaves="3" result="noise" seed="302" />
<feComponentTransfer in="noise" result="coloredNoise1">
<feFuncR type="linear" slope="2" intercept="-0.5" />
<feFuncG type="linear" slope="2" intercept="-0.5" />
<feFuncB type="linear" slope="2" intercept="-0.5" />
<feFuncA type="discrete" tableValues="0 0 0 0 0 0 0 0 0 0 0 0 1 1 1 1 1 1 1 1 1 1 1 1 1 1 1 1 1 1 1 1 1 1 1 1 1 1 0 0 0 0 0 0 0 0 0 0 0 0 0 0 0 0 0 0 0 0 0 0 0 0 0 0 0 0 0 0 0 0 0 0 0 0 0 0 0 0 0 0 0 0 0 0 0 0 0 0 0 0 0 0 0 0 0 0 0 0 0 0 "/>
</feComponentTransfer>
<feComposite operator="in" in2="shape" in="coloredNoise1" result="noise1Clipped" />
<feComponentTransfer in="noise1Clipped" result="color1">
<feFuncA type="table" tableValues="0 0.1" />
</feComponentTransfer>
<feMerge result="effect1_noise_0_14">
<feMergeNode in="shape" />
<feMergeNode in="color1" />
</feMerge>
</filter>
</defs>
</svg>
